<svg width="500" height="300" viewBox="0 0 500 300" fill="none" xmlns="http://www.w3.org/2000/svg">
<path d="M18.2305 291.662H15.9453V298H15.0127V291.662H12.7324V290.891H18.2305V291.662ZM20.8477 298.098C20.1315 298.098 19.5488 297.863 19.0996 297.395C18.6504 296.923 18.4258 296.293 18.4258 295.505V295.339C18.4258 294.815 18.5251 294.348 18.7236 293.938C18.9255 293.524 19.2054 293.202 19.5635 292.971C19.9248 292.736 20.3154 292.619 20.7354 292.619C21.4222 292.619 21.9561 292.845 22.3369 293.298C22.7178 293.75 22.9082 294.398 22.9082 295.241V295.617H19.3291C19.3421 296.138 19.4935 296.56 19.7832 296.882C20.0762 297.201 20.4473 297.36 20.8965 297.36C21.2155 297.36 21.4857 297.295 21.707 297.165C21.9284 297.035 22.1221 296.862 22.2881 296.647L22.8398 297.077C22.3971 297.757 21.7331 298.098 20.8477 298.098ZM20.7354 293.361C20.3708 293.361 20.0648 293.495 19.8174 293.762C19.57 294.025 19.417 294.396 19.3584 294.875H22.0049V294.807C21.9788 294.348 21.8551 293.993 21.6338 293.742C21.4124 293.488 21.113 293.361 20.7354 293.361ZM25.7305 294.646L26.9023 292.717H27.957L26.2285 295.329L28.0107 298H26.9658L25.7451 296.022L24.5244 298H23.4746L25.2568 295.329L23.5283 292.717H24.5732L25.7305 294.646ZM30.1445 291.438V292.717H31.1309V293.415H30.1445V296.691C30.1445 296.903 30.1885 297.062 30.2764 297.17C30.3643 297.274 30.514 297.326 30.7256 297.326C30.8298 297.326 30.973 297.307 31.1553 297.268V298C30.9176 298.065 30.6865 298.098 30.4619 298.098C30.0583 298.098 29.7539 297.976 29.5488 297.731C29.3438 297.487 29.2412 297.141 29.2412 296.691V293.415H28.2793V292.717H29.2412V291.438H30.1445Z" fill="#A3A3A3"/>
<path d="M135.23 291.662H132.945V298H132.013V291.662H129.732V290.891H135.23V291.662ZM137.848 298.098C137.132 298.098 136.549 297.863 136.1 297.395C135.65 296.923 135.426 296.293 135.426 295.505V295.339C135.426 294.815 135.525 294.348 135.724 293.938C135.925 293.524 136.205 293.202 136.563 292.971C136.925 292.736 137.315 292.619 137.735 292.619C138.422 292.619 138.956 292.845 139.337 293.298C139.718 293.75 139.908 294.398 139.908 295.241V295.617H136.329C136.342 296.138 136.493 296.56 136.783 296.882C137.076 297.201 137.447 297.36 137.896 297.36C138.215 297.36 138.486 297.295 138.707 297.165C138.928 297.035 139.122 296.862 139.288 296.647L139.84 297.077C139.397 297.757 138.733 298.098 137.848 298.098ZM137.735 293.361C137.371 293.361 137.065 293.495 136.817 293.762C136.57 294.025 136.417 294.396 136.358 294.875H139.005V294.807C138.979 294.348 138.855 293.993 138.634 293.742C138.412 293.488 138.113 293.361 137.735 293.361ZM142.73 294.646L143.902 292.717H144.957L143.229 295.329L145.011 298H143.966L142.745 296.022L141.524 298H140.475L142.257 295.329L140.528 292.717H141.573L142.73 294.646ZM147.145 291.438V292.717H148.131V293.415H147.145V296.691C147.145 296.903 147.188 297.062 147.276 297.17C147.364 297.274 147.514 297.326 147.726 297.326C147.83 297.326 147.973 297.307 148.155 297.268V298C147.918 298.065 147.687 298.098 147.462 298.098C147.058 298.098 146.754 297.976 146.549 297.731C146.344 297.487 146.241 297.141 146.241 296.691V293.415H145.279V292.717H146.241V291.438H147.145Z" fill="#A3A3A3"/>
<path d="M252.23 291.662H249.945V298H249.013V291.662H246.732V290.891H252.23V291.662ZM254.848 298.098C254.132 298.098 253.549 297.863 253.1 297.395C252.65 296.923 252.426 296.293 252.426 295.505V295.339C252.426 294.815 252.525 294.348 252.724 293.938C252.925 293.524 253.205 293.202 253.563 292.971C253.925 292.736 254.315 292.619 254.735 292.619C255.422 292.619 255.956 292.845 256.337 293.298C256.718 293.75 256.908 294.398 256.908 295.241V295.617H253.329C253.342 296.138 253.493 296.56 253.783 296.882C254.076 297.201 254.447 297.36 254.896 297.36C255.215 297.36 255.486 297.295 255.707 297.165C255.928 297.035 256.122 296.862 256.288 296.647L256.84 297.077C256.397 297.757 255.733 298.098 254.848 298.098ZM254.735 293.361C254.371 293.361 254.065 293.495 253.817 293.762C253.57 294.025 253.417 294.396 253.358 294.875H256.005V294.807C255.979 294.348 255.855 293.993 255.634 293.742C255.412 293.488 255.113 293.361 254.735 293.361ZM259.73 294.646L260.902 292.717H261.957L260.229 295.329L262.011 298H260.966L259.745 296.022L258.524 298H257.475L259.257 295.329L257.528 292.717H258.573L259.73 294.646ZM264.145 291.438V292.717H265.131V293.415H264.145V296.691C264.145 296.903 264.188 297.062 264.276 297.17C264.364 297.274 264.514 297.326 264.726 297.326C264.83 297.326 264.973 297.307 265.155 297.268V298C264.918 298.065 264.687 298.098 264.462 298.098C264.058 298.098 263.754 297.976 263.549 297.731C263.344 297.487 263.241 297.141 263.241 296.691V293.415H262.279V292.717H263.241V291.438H264.145Z" fill="#A3A3A3"/>
<path d="M369.23 291.662H366.945V298H366.013V291.662H363.732V290.891H369.23V291.662ZM371.848 298.098C371.132 298.098 370.549 297.863 370.1 297.395C369.65 296.923 369.426 296.293 369.426 295.505V295.339C369.426 294.815 369.525 294.348 369.724 293.938C369.925 293.524 370.205 293.202 370.563 292.971C370.925 292.736 371.315 292.619 371.735 292.619C372.422 292.619 372.956 292.845 373.337 293.298C373.718 293.75 373.908 294.398 373.908 295.241V295.617H370.329C370.342 296.138 370.493 296.56 370.783 296.882C371.076 297.201 371.447 297.36 371.896 297.36C372.215 297.36 372.486 297.295 372.707 297.165C372.928 297.035 373.122 296.862 373.288 296.647L373.84 297.077C373.397 297.757 372.733 298.098 371.848 298.098ZM371.735 293.361C371.371 293.361 371.065 293.495 370.817 293.762C370.57 294.025 370.417 294.396 370.358 294.875H373.005V294.807C372.979 294.348 372.855 293.993 372.634 293.742C372.412 293.488 372.113 293.361 371.735 293.361ZM376.73 294.646L377.902 292.717H378.957L377.229 295.329L379.011 298H377.966L376.745 296.022L375.524 298H374.475L376.257 295.329L374.528 292.717H375.573L376.73 294.646ZM381.145 291.438V292.717H382.131V293.415H381.145V296.691C381.145 296.903 381.188 297.062 381.276 297.17C381.364 297.274 381.514 297.326 381.726 297.326C381.83 297.326 381.973 297.307 382.155 297.268V298C381.918 298.065 381.687 298.098 381.462 298.098C381.058 298.098 380.754 297.976 380.549 297.731C380.344 297.487 380.241 297.141 380.241 296.691V293.415H379.279V292.717H380.241V291.438H381.145Z" fill="#A3A3A3"/>
<path d="M486.23 291.662H483.945V298H483.013V291.662H480.732V290.891H486.23V291.662ZM488.848 298.098C488.132 298.098 487.549 297.863 487.1 297.395C486.65 296.923 486.426 296.293 486.426 295.505V295.339C486.426 294.815 486.525 294.348 486.724 293.938C486.925 293.524 487.205 293.202 487.563 292.971C487.925 292.736 488.315 292.619 488.735 292.619C489.422 292.619 489.956 292.845 490.337 293.298C490.718 293.75 490.908 294.398 490.908 295.241V295.617H487.329C487.342 296.138 487.493 296.56 487.783 296.882C488.076 297.201 488.447 297.36 488.896 297.36C489.215 297.36 489.486 297.295 489.707 297.165C489.928 297.035 490.122 296.862 490.288 296.647L490.84 297.077C490.397 297.757 489.733 298.098 488.848 298.098ZM488.735 293.361C488.371 293.361 488.065 293.495 487.817 293.762C487.57 294.025 487.417 294.396 487.358 294.875H490.005V294.807C489.979 294.348 489.855 293.993 489.634 293.742C489.412 293.488 489.113 293.361 488.735 293.361ZM493.73 294.646L494.902 292.717H495.957L494.229 295.329L496.011 298H494.966L493.745 296.022L492.524 298H491.475L493.257 295.329L491.528 292.717H492.573L493.73 294.646ZM498.145 291.438V292.717H499.131V293.415H498.145V296.691C498.145 296.903 498.188 297.062 498.276 297.17C498.364 297.274 498.514 297.326 498.726 297.326C498.83 297.326 498.973 297.307 499.155 297.268V298C498.918 298.065 498.687 298.098 498.462 298.098C498.058 298.098 497.754 297.976 497.549 297.731C497.344 297.487 497.241 297.141 497.241 296.691V293.415H496.279V292.717H497.241V291.438H498.145Z" fill="#A3A3A3"/>
<path d="M5.67188 2.74609C5.67188 3.10091 5.57747 3.41667 5.38867 3.69336C5.20312 3.97005 4.95085 4.18652 4.63184 4.34277C5.00293 4.50228 5.2959 4.73503 5.51074 5.04102C5.72884 5.34701 5.83789 5.69368 5.83789 6.08105C5.83789 6.69629 5.62956 7.1862 5.21289 7.55078C4.79948 7.91536 4.25423 8.09766 3.57715 8.09766C2.89355 8.09766 2.34505 7.91536 1.93164 7.55078C1.52148 7.18294 1.31641 6.69303 1.31641 6.08105C1.31641 5.69694 1.42057 5.35026 1.62891 5.04102C1.84049 4.73177 2.13184 4.4974 2.50293 4.33789C2.18717 4.18164 1.93815 3.96517 1.75586 3.68848C1.57357 3.41178 1.48242 3.09766 1.48242 2.74609C1.48242 2.14714 1.67448 1.67188 2.05859 1.32031C2.44271 0.96875 2.94889 0.792969 3.57715 0.792969C4.20215 0.792969 4.70671 0.96875 5.09082 1.32031C5.47819 1.67188 5.67188 2.14714 5.67188 2.74609ZM4.93457 6.06152C4.93457 5.66439 4.80762 5.34049 4.55371 5.08984C4.30306 4.83919 3.97428 4.71387 3.56738 4.71387C3.16048 4.71387 2.83333 4.83757 2.58594 5.08496C2.3418 5.33236 2.21973 5.65788 2.21973 6.06152C2.21973 6.46517 2.33854 6.78255 2.57617 7.01367C2.81706 7.24479 3.15072 7.36035 3.57715 7.36035C4.00033 7.36035 4.33236 7.24479 4.57324 7.01367C4.81413 6.7793 4.93457 6.46191 4.93457 6.06152ZM3.57715 1.53516C3.22233 1.53516 2.93424 1.64583 2.71289 1.86719C2.49479 2.08529 2.38574 2.38314 2.38574 2.76074C2.38574 3.12207 2.49316 3.41504 2.70801 3.63965C2.92611 3.861 3.21582 3.97168 3.57715 3.97168C3.93848 3.97168 4.22656 3.861 4.44141 3.63965C4.65951 3.41504 4.76855 3.12207 4.76855 2.76074C4.76855 2.39941 4.65625 2.10482 4.43164 1.87695C4.20703 1.64909 3.9222 1.53516 3.57715 1.53516ZM11.4336 4.96777C11.4336 6.02572 11.2529 6.81185 10.8916 7.32617C10.5303 7.84049 9.96549 8.09766 9.19727 8.09766C8.4388 8.09766 7.87728 7.84701 7.5127 7.3457C7.14811 6.84115 6.95931 6.08919 6.94629 5.08984V3.88379C6.94629 2.83887 7.12695 2.0625 7.48828 1.55469C7.84961 1.04688 8.41602 0.792969 9.1875 0.792969C9.95247 0.792969 10.5156 1.03874 10.877 1.53027C11.2383 2.01855 11.4238 2.77376 11.4336 3.7959V4.96777ZM10.5303 3.73242C10.5303 2.96745 10.4229 2.41081 10.208 2.0625C9.99316 1.71094 9.65299 1.53516 9.1875 1.53516C8.72526 1.53516 8.38835 1.70931 8.17676 2.05762C7.96517 2.40592 7.85612 2.94141 7.84961 3.66406V5.10938C7.84961 5.8776 7.96029 6.44564 8.18164 6.81348C8.40625 7.17806 8.74479 7.36035 9.19727 7.36035C9.64323 7.36035 9.97363 7.18783 10.1885 6.84277C10.4066 6.49772 10.5205 5.9541 10.5303 5.21191V3.73242Z" fill="#A3A3A3"/>
<path d="M5.9502 35.3984L3.00586 42H2.05859L4.99316 35.6328H1.14551V34.8906H5.9502V35.3984ZM11.4336 38.9678C11.4336 40.0257 11.2529 40.8118 10.8916 41.3262C10.5303 41.8405 9.96549 42.0977 9.19727 42.0977C8.4388 42.0977 7.87728 41.847 7.5127 41.3457C7.14811 40.8411 6.95931 40.0892 6.94629 39.0898V37.8838C6.94629 36.8389 7.12695 36.0625 7.48828 35.5547C7.84961 35.0469 8.41602 34.793 9.1875 34.793C9.95247 34.793 10.5156 35.0387 10.877 35.5303C11.2383 36.0186 11.4238 36.7738 11.4336 37.7959V38.9678ZM10.5303 37.7324C10.5303 36.9674 10.4229 36.4108 10.208 36.0625C9.99316 35.7109 9.65299 35.5352 9.1875 35.5352C8.72526 35.5352 8.38835 35.7093 8.17676 36.0576C7.96517 36.4059 7.85612 36.9414 7.84961 37.6641V39.1094C7.84961 39.8776 7.96029 40.4456 8.18164 40.8135C8.40625 41.1781 8.74479 41.3604 9.19727 41.3604C9.64323 41.3604 9.97363 41.1878 10.1885 40.8428C10.4066 40.4977 10.5205 39.9541 10.5303 39.2119V37.7324Z" fill="#A3A3A3"/>
<path d="M4.90527 68.8857V69.6523H4.73926C4.03613 69.6654 3.47624 69.8737 3.05957 70.2773C2.6429 70.681 2.40202 71.249 2.33691 71.9814C2.71126 71.5518 3.22233 71.3369 3.87012 71.3369C4.48861 71.3369 4.98177 71.555 5.34961 71.9912C5.7207 72.4274 5.90625 72.9906 5.90625 73.6807C5.90625 74.4131 5.70605 74.999 5.30566 75.4385C4.90853 75.8779 4.37467 76.0977 3.7041 76.0977C3.02376 76.0977 2.47201 75.8372 2.04883 75.3164C1.62565 74.7923 1.41406 74.1185 1.41406 73.2949V72.9482C1.41406 71.6396 1.69238 70.6403 2.24902 69.9502C2.80892 69.2568 3.64062 68.902 4.74414 68.8857H4.90527ZM3.71875 72.0889C3.40951 72.0889 3.12467 72.1816 2.86426 72.3672C2.60384 72.5527 2.42318 72.7855 2.32227 73.0654V73.3975C2.32227 73.9834 2.4541 74.4554 2.71777 74.8135C2.98145 75.1715 3.31022 75.3506 3.7041 75.3506C4.111 75.3506 4.43001 75.2008 4.66113 74.9014C4.89551 74.6019 5.0127 74.2096 5.0127 73.7246C5.0127 73.2363 4.89388 72.8424 4.65625 72.543C4.42188 72.2402 4.10938 72.0889 3.71875 72.0889ZM11.4336 72.9678C11.4336 74.0257 11.2529 74.8118 10.8916 75.3262C10.5303 75.8405 9.96549 76.0977 9.19727 76.0977C8.4388 76.0977 7.87728 75.847 7.5127 75.3457C7.14811 74.8411 6.95931 74.0892 6.94629 73.0898V71.8838C6.94629 70.8389 7.12695 70.0625 7.48828 69.5547C7.84961 69.0469 8.41602 68.793 9.1875 68.793C9.95247 68.793 10.5156 69.0387 10.877 69.5303C11.2383 70.0186 11.4238 70.7738 11.4336 71.7959V72.9678ZM10.5303 71.7324C10.5303 70.9674 10.4229 70.4108 10.208 70.0625C9.99316 69.7109 9.65299 69.5352 9.1875 69.5352C8.72526 69.5352 8.38835 69.7093 8.17676 70.0576C7.96517 70.4059 7.85612 70.9414 7.84961 71.6641V73.1094C7.84961 73.8776 7.96029 74.4456 8.18164 74.8135C8.40625 75.1781 8.74479 75.3604 9.19727 75.3604C9.64323 75.3604 9.97363 75.1878 10.1885 74.8428C10.4066 74.4977 10.5205 73.9541 10.5303 73.2119V71.7324Z" fill="#A3A3A3"/>
<path d="M1.77539 107.436L2.13672 103.891H5.7793V104.726H2.90332L2.68848 106.664C3.03678 106.459 3.43229 106.356 3.875 106.356C4.52279 106.356 5.03711 106.571 5.41797 107.001C5.79883 107.427 5.98926 108.005 5.98926 108.734C5.98926 109.467 5.79069 110.045 5.39355 110.468C4.99967 110.888 4.44792 111.098 3.73828 111.098C3.11003 111.098 2.59733 110.924 2.2002 110.575C1.80306 110.227 1.57682 109.745 1.52148 109.13H2.37598C2.43132 109.537 2.57617 109.844 2.81055 110.053C3.04492 110.258 3.35417 110.36 3.73828 110.36C4.1582 110.36 4.48698 110.217 4.72461 109.931C4.96549 109.644 5.08594 109.249 5.08594 108.744C5.08594 108.269 4.95573 107.888 4.69531 107.602C4.43815 107.312 4.09473 107.167 3.66504 107.167C3.27116 107.167 2.96191 107.253 2.7373 107.426L2.49805 107.621L1.77539 107.436ZM11.4336 107.968C11.4336 109.026 11.2529 109.812 10.8916 110.326C10.5303 110.84 9.96549 111.098 9.19727 111.098C8.4388 111.098 7.87728 110.847 7.5127 110.346C7.14811 109.841 6.95931 109.089 6.94629 108.09V106.884C6.94629 105.839 7.12695 105.062 7.48828 104.555C7.84961 104.047 8.41602 103.793 9.1875 103.793C9.95247 103.793 10.5156 104.039 10.877 104.53C11.2383 105.019 11.4238 105.774 11.4336 106.796V107.968ZM10.5303 106.732C10.5303 105.967 10.4229 105.411 10.208 105.062C9.99316 104.711 9.65299 104.535 9.1875 104.535C8.72526 104.535 8.38835 104.709 8.17676 105.058C7.96517 105.406 7.85612 105.941 7.84961 106.664V108.109C7.84961 108.878 7.96029 109.446 8.18164 109.813C8.40625 110.178 8.74479 110.36 9.19727 110.36C9.64323 110.36 9.97363 110.188 10.1885 109.843C10.4066 109.498 10.5205 108.954 10.5303 108.212V106.732Z" fill="#A3A3A3"/>
<path d="M5.17383 142.612H6.16016V143.35H5.17383V145H4.26562V143.35H1.02832V142.817L4.21191 137.891H5.17383V142.612ZM2.05371 142.612H4.26562V139.126L4.1582 139.321L2.05371 142.612ZM11.4336 141.968C11.4336 143.026 11.2529 143.812 10.8916 144.326C10.5303 144.84 9.96549 145.098 9.19727 145.098C8.4388 145.098 7.87728 144.847 7.5127 144.346C7.14811 143.841 6.95931 143.089 6.94629 142.09V140.884C6.94629 139.839 7.12695 139.062 7.48828 138.555C7.84961 138.047 8.41602 137.793 9.1875 137.793C9.95247 137.793 10.5156 138.039 10.877 138.53C11.2383 139.019 11.4238 139.774 11.4336 140.796V141.968ZM10.5303 140.732C10.5303 139.967 10.4229 139.411 10.208 139.062C9.99316 138.711 9.65299 138.535 9.1875 138.535C8.72526 138.535 8.38835 138.709 8.17676 139.058C7.96517 139.406 7.85612 139.941 7.84961 140.664V142.109C7.84961 142.878 7.96029 143.446 8.18164 143.813C8.40625 144.178 8.74479 144.36 9.19727 144.36C9.64323 144.36 9.97363 144.188 10.1885 143.843C10.4066 143.498 10.5205 142.954 10.5303 142.212V140.732Z" fill="#A3A3A3"/>
<path d="M2.67383 175.006H3.35254C3.77897 174.999 4.11426 174.887 4.3584 174.669C4.60254 174.451 4.72461 174.156 4.72461 173.785C4.72461 172.952 4.30957 172.535 3.47949 172.535C3.08887 172.535 2.77637 172.647 2.54199 172.872C2.31087 173.093 2.19531 173.388 2.19531 173.756H1.29199C1.29199 173.193 1.49707 172.726 1.90723 172.354C2.32064 171.98 2.84473 171.793 3.47949 171.793C4.15007 171.793 4.67578 171.97 5.05664 172.325C5.4375 172.68 5.62793 173.173 5.62793 173.805C5.62793 174.114 5.52702 174.413 5.3252 174.703C5.12663 174.993 4.85482 175.209 4.50977 175.353C4.90039 175.476 5.2015 175.681 5.41309 175.968C5.62793 176.254 5.73535 176.604 5.73535 177.018C5.73535 177.656 5.52702 178.162 5.11035 178.536C4.69368 178.91 4.15169 179.098 3.48438 179.098C2.81706 179.098 2.27344 178.917 1.85352 178.556C1.43685 178.194 1.22852 177.717 1.22852 177.125H2.13672C2.13672 177.499 2.25879 177.799 2.50293 178.023C2.74707 178.248 3.07422 178.36 3.48438 178.36C3.92057 178.36 4.25423 178.246 4.48535 178.019C4.71647 177.791 4.83203 177.464 4.83203 177.037C4.83203 176.624 4.70508 176.306 4.45117 176.085C4.19727 175.864 3.83105 175.75 3.35254 175.743H2.67383V175.006ZM11.4336 175.968C11.4336 177.026 11.2529 177.812 10.8916 178.326C10.5303 178.84 9.96549 179.098 9.19727 179.098C8.4388 179.098 7.87728 178.847 7.5127 178.346C7.14811 177.841 6.95931 177.089 6.94629 176.09V174.884C6.94629 173.839 7.12695 173.062 7.48828 172.555C7.84961 172.047 8.41602 171.793 9.1875 171.793C9.95247 171.793 10.5156 172.039 10.877 172.53C11.2383 173.019 11.4238 173.774 11.4336 174.796V175.968ZM10.5303 174.732C10.5303 173.967 10.4229 173.411 10.208 173.062C9.99316 172.711 9.65299 172.535 9.1875 172.535C8.72526 172.535 8.38835 172.709 8.17676 173.058C7.96517 173.406 7.85612 173.941 7.84961 174.664V176.109C7.84961 176.878 7.96029 177.446 8.18164 177.813C8.40625 178.178 8.74479 178.36 9.19727 178.36C9.64323 178.36 9.97363 178.188 10.1885 177.843C10.4066 177.498 10.5205 176.954 10.5303 176.212V174.732Z" fill="#A3A3A3"/>
<path d="M6.01855 214H1.36035V213.351L3.82129 210.616C4.18587 210.203 4.43652 209.868 4.57324 209.61C4.71322 209.35 4.7832 209.081 4.7832 208.805C4.7832 208.434 4.6709 208.129 4.44629 207.892C4.22168 207.654 3.9222 207.535 3.54785 207.535C3.09863 207.535 2.7487 207.664 2.49805 207.921C2.25065 208.175 2.12695 208.53 2.12695 208.985H1.22363C1.22363 208.331 1.43359 207.802 1.85352 207.398C2.27669 206.995 2.84147 206.793 3.54785 206.793C4.20866 206.793 4.73112 206.967 5.11523 207.315C5.49935 207.66 5.69141 208.121 5.69141 208.697C5.69141 209.397 5.24544 210.23 4.35352 211.197L2.44922 213.263H6.01855V214ZM11.4336 210.968C11.4336 212.026 11.2529 212.812 10.8916 213.326C10.5303 213.84 9.96549 214.098 9.19727 214.098C8.4388 214.098 7.87728 213.847 7.5127 213.346C7.14811 212.841 6.95931 212.089 6.94629 211.09V209.884C6.94629 208.839 7.12695 208.062 7.48828 207.555C7.84961 207.047 8.41602 206.793 9.1875 206.793C9.95247 206.793 10.5156 207.039 10.877 207.53C11.2383 208.019 11.4238 208.774 11.4336 209.796V210.968ZM10.5303 209.732C10.5303 208.967 10.4229 208.411 10.208 208.062C9.99316 207.711 9.65299 207.535 9.1875 207.535C8.72526 207.535 8.38835 207.709 8.17676 208.058C7.96517 208.406 7.85612 208.941 7.84961 209.664V211.109C7.84961 211.878 7.96029 212.446 8.18164 212.813C8.40625 213.178 8.74479 213.36 9.19727 213.36C9.64323 213.36 9.97363 213.188 10.1885 212.843C10.4066 212.498 10.5205 211.954 10.5303 211.212V209.732Z" fill="#A3A3A3"/>
<path d="M4.3291 248H3.4209V241.979L1.59961 242.648V241.828L4.1875 240.856H4.3291V248ZM11.4336 244.968C11.4336 246.026 11.2529 246.812 10.8916 247.326C10.5303 247.84 9.96549 248.098 9.19727 248.098C8.4388 248.098 7.87728 247.847 7.5127 247.346C7.14811 246.841 6.95931 246.089 6.94629 245.09V243.884C6.94629 242.839 7.12695 242.062 7.48828 241.555C7.84961 241.047 8.41602 240.793 9.1875 240.793C9.95247 240.793 10.5156 241.039 10.877 241.53C11.2383 242.019 11.4238 242.774 11.4336 243.796V244.968ZM10.5303 243.732C10.5303 242.967 10.4229 242.411 10.208 242.062C9.99316 241.711 9.65299 241.535 9.1875 241.535C8.72526 241.535 8.38835 241.709 8.17676 242.058C7.96517 242.406 7.85612 242.941 7.84961 243.664V245.109C7.84961 245.878 7.96029 246.446 8.18164 246.813C8.40625 247.178 8.74479 247.36 9.19727 247.36C9.64323 247.36 9.97363 247.188 10.1885 246.843C10.4066 246.498 10.5205 245.954 10.5303 245.212V243.732Z" fill="#A3A3A3"/>
<path d="M11.4336 279.968C11.4336 281.026 11.2529 281.812 10.8916 282.326C10.5303 282.84 9.96549 283.098 9.19727 283.098C8.4388 283.098 7.87728 282.847 7.5127 282.346C7.14811 281.841 6.95931 281.089 6.94629 280.09V278.884C6.94629 277.839 7.12695 277.062 7.48828 276.555C7.84961 276.047 8.41602 275.793 9.1875 275.793C9.95247 275.793 10.5156 276.039 10.877 276.53C11.2383 277.019 11.4238 277.774 11.4336 278.796V279.968ZM10.5303 278.732C10.5303 277.967 10.4229 277.411 10.208 277.062C9.99316 276.711 9.65299 276.535 9.1875 276.535C8.72526 276.535 8.38835 276.709 8.17676 277.058C7.96517 277.406 7.85612 277.941 7.84961 278.664V280.109C7.84961 280.878 7.96029 281.446 8.18164 281.813C8.40625 282.178 8.74479 282.36 9.19727 282.36C9.64323 282.36 9.97363 282.188 10.1885 281.843C10.4066 281.498 10.5205 280.954 10.5303 280.212V278.732Z" fill="#A3A3A3"/>
<path d="M22 280V5" stroke="#F0F0F0"/>
<path d="M139 280V5" stroke="#F0F0F0"/>
<path d="M256 280V5" stroke="#F0F0F0"/>
<path d="M373 280V5" stroke="#F0F0F0"/>
<path d="M490 280V5" stroke="#F0F0F0"/>
<path d="M22 5H490" stroke="#F0F0F0"/>
<path d="M22 39H490" stroke="#F0F0F0"/>
<path d="M22 73H490" stroke="#F0F0F0"/>
<path d="M22 108H490" stroke="#F0F0F0"/>
<path d="M22 142H490" stroke="#F0F0F0"/>
<path d="M22 176H490" stroke="#F0F0F0"/>
<path d="M22 211H490" stroke="#F0F0F0"/>
<path d="M22 245H490" stroke="#F0F0F0"/>
<path d="M22 280H490" stroke="#F0F0F0"/>
<path d="M22 166C22 166 80 46 139 46C197 46 197 66 256 66C314 66 314 25 373 25C431 25 490 214 490 214V280H22V166Z" fill="#A6CEE3" fill-opacity="0.8"/>
</svg>
