<svg width="21" height="21" viewBox="0 0 21 21" fill="none" xmlns="http://www.w3.org/2000/svg">
<path d="M10.8642 0.863281C8.14836 0.863281 7.80752 0.875156 6.74084 0.923698C5.67625 0.972448 4.94957 1.14099 4.31373 1.38828C3.65602 1.6437 3.0981 1.98536 2.54226 2.54141C1.986 3.09724 1.64433 3.65516 1.38808 4.31266C1.14016 4.9487 0.971407 5.67557 0.92349 6.73974C0.875781 7.80641 0.863281 8.14745 0.863281 10.8633C0.863281 13.5791 0.875365 13.9189 0.923699 14.9856C0.972658 16.0502 1.1412 16.7768 1.38829 17.4127C1.64391 18.0704 1.98558 18.6283 2.54163 19.1841C3.09726 19.7404 3.65519 20.0829 4.31248 20.3383C4.94874 20.5856 5.67562 20.7541 6.74001 20.8029C7.80669 20.8514 8.14732 20.8633 10.863 20.8633C13.579 20.8633 13.9188 20.8514 14.9855 20.8029C16.0501 20.7541 16.7776 20.5856 17.4139 20.3383C18.0714 20.0829 18.6285 19.7404 19.1841 19.1841C19.7404 18.6283 20.082 18.0704 20.3383 17.4129C20.5841 16.7768 20.7529 16.0499 20.8029 14.9858C20.8508 13.9191 20.8633 13.5791 20.8633 10.8633C20.8633 8.14745 20.8508 7.80661 20.8029 6.73995C20.7529 5.67536 20.5841 4.9487 20.3383 4.31286C20.082 3.65516 19.7404 3.09724 19.1841 2.54141C18.6278 1.98516 18.0716 1.64349 17.4132 1.38828C16.7757 1.14099 16.0486 0.972448 14.9841 0.923698C13.9174 0.875156 13.5778 0.863281 10.8611 0.863281H10.8642ZM9.96713 2.66536C10.2334 2.66495 10.5305 2.66536 10.8642 2.66536C13.5342 2.66536 13.8507 2.67495 14.9051 2.72286C15.8801 2.76745 16.4093 2.93036 16.7618 3.06724C17.2285 3.24849 17.5612 3.46516 17.911 3.81516C18.261 4.16516 18.4776 4.49849 18.6593 4.96516C18.7962 5.31724 18.9593 5.84641 19.0037 6.82141C19.0516 7.87557 19.062 8.19224 19.062 10.861C19.062 13.5297 19.0516 13.8464 19.0037 14.9006C18.9591 15.8756 18.7962 16.4047 18.6593 16.7568C18.478 17.2235 18.261 17.5558 17.911 17.9056C17.561 18.2556 17.2287 18.4722 16.7618 18.6535C16.4097 18.791 15.8801 18.9535 14.9051 18.9981C13.8509 19.046 13.5342 19.0564 10.8642 19.0564C8.19398 19.0564 7.87752 19.046 6.82334 18.9981C5.84833 18.9531 5.31916 18.7902 4.96645 18.6533C4.49978 18.472 4.16644 18.2554 3.81644 17.9054C3.46643 17.5554 3.24976 17.2229 3.0681 16.756C2.93122 16.4039 2.76809 15.8747 2.72372 14.8997C2.6758 13.8456 2.66622 13.5289 2.66622 10.8585C2.66622 8.18807 2.6758 7.87307 2.72372 6.81891C2.7683 5.84391 2.93122 5.31474 3.0681 4.96224C3.24935 4.49557 3.46643 4.16224 3.81644 3.81224C4.16644 3.46224 4.49978 3.24557 4.96645 3.06391C5.31895 2.92641 5.84833 2.76391 6.82334 2.71911C7.74585 2.67745 8.10336 2.66495 9.96713 2.66286V2.66536ZM16.2022 4.32578C15.5397 4.32578 15.0022 4.86266 15.0022 5.52536C15.0022 6.18786 15.5397 6.72536 16.2022 6.72536C16.8647 6.72536 17.4022 6.18786 17.4022 5.52536C17.4022 4.86286 16.8647 4.32536 16.2022 4.32536V4.32578ZM10.8642 5.72786C8.02815 5.72786 5.72875 8.02724 5.72875 10.8633C5.72875 13.6993 8.02815 15.9977 10.8642 15.9977C13.7003 15.9977 15.9989 13.6993 15.9989 10.8633C15.9989 8.02724 13.7001 5.72786 10.864 5.72786H10.8642ZM10.8642 7.52995C12.7051 7.52995 14.1976 9.02224 14.1976 10.8633C14.1976 12.7041 12.7051 14.1966 10.8642 14.1966C9.02316 14.1966 7.53085 12.7041 7.53085 10.8633C7.53085 9.02224 9.02316 7.52995 10.8642 7.52995V7.52995Z" fill="white"/>
</svg>
