<svg width="1440" height="1024" viewBox="0 0 1440 1024" fill="none" xmlns="http://www.w3.org/2000/svg">
<path d="M18.2305 1015.66H15.9453V1022H15.0127V1015.66H12.7324V1014.89H18.2305V1015.66ZM20.8477 1022.1C20.1315 1022.1 19.5488 1021.86 19.0996 1021.39C18.6504 1020.92 18.4258 1020.29 18.4258 1019.5V1019.34C18.4258 1018.81 18.5251 1018.35 18.7236 1017.94C18.9255 1017.52 19.2054 1017.2 19.5635 1016.97C19.9248 1016.74 20.3154 1016.62 20.7354 1016.62C21.4222 1016.62 21.9561 1016.85 22.3369 1017.3C22.7178 1017.75 22.9082 1018.4 22.9082 1019.24V1019.62H19.3291C19.3421 1020.14 19.4935 1020.56 19.7832 1020.88C20.0762 1021.2 20.4473 1021.36 20.8965 1021.36C21.2155 1021.36 21.4857 1021.3 21.707 1021.17C21.9284 1021.03 22.1221 1020.86 22.2881 1020.65L22.8398 1021.08C22.3971 1021.76 21.7331 1022.1 20.8477 1022.1ZM20.7354 1017.36C20.3708 1017.36 20.0648 1017.49 19.8174 1017.76C19.57 1018.03 19.417 1018.4 19.3584 1018.88H22.0049V1018.81C21.9788 1018.35 21.8551 1017.99 21.6338 1017.74C21.4124 1017.49 21.113 1017.36 20.7354 1017.36ZM25.7305 1018.65L26.9023 1016.72H27.957L26.2285 1019.33L28.0107 1022H26.9658L25.7451 1020.02L24.5244 1022H23.4746L25.2568 1019.33L23.5283 1016.72H24.5732L25.7305 1018.65ZM30.1445 1015.44V1016.72H31.1309V1017.42H30.1445V1020.69C30.1445 1020.9 30.1885 1021.06 30.2764 1021.17C30.3643 1021.27 30.514 1021.33 30.7256 1021.33C30.8298 1021.33 30.973 1021.31 31.1553 1021.27V1022C30.9176 1022.07 30.6865 1022.1 30.4619 1022.1C30.0583 1022.1 29.7539 1021.98 29.5488 1021.73C29.3438 1021.49 29.2412 1021.14 29.2412 1020.69V1017.42H28.2793V1016.72H29.2412V1015.44H30.1445Z" fill="#A3A3A3"/>
<path d="M370.23 1015.66H367.945V1022H367.013V1015.66H364.732V1014.89H370.23V1015.66ZM372.848 1022.1C372.132 1022.1 371.549 1021.86 371.1 1021.39C370.65 1020.92 370.426 1020.29 370.426 1019.5V1019.34C370.426 1018.81 370.525 1018.35 370.724 1017.94C370.925 1017.52 371.205 1017.2 371.563 1016.97C371.925 1016.74 372.315 1016.62 372.735 1016.62C373.422 1016.62 373.956 1016.85 374.337 1017.3C374.718 1017.75 374.908 1018.4 374.908 1019.24V1019.62H371.329C371.342 1020.14 371.493 1020.56 371.783 1020.88C372.076 1021.2 372.447 1021.36 372.896 1021.36C373.215 1021.36 373.486 1021.3 373.707 1021.17C373.928 1021.03 374.122 1020.86 374.288 1020.65L374.84 1021.08C374.397 1021.76 373.733 1022.1 372.848 1022.1ZM372.735 1017.36C372.371 1017.36 372.065 1017.49 371.817 1017.76C371.57 1018.03 371.417 1018.4 371.358 1018.88H374.005V1018.81C373.979 1018.35 373.855 1017.99 373.634 1017.74C373.412 1017.49 373.113 1017.36 372.735 1017.36ZM377.73 1018.65L378.902 1016.72H379.957L378.229 1019.33L380.011 1022H378.966L377.745 1020.02L376.524 1022H375.475L377.257 1019.33L375.528 1016.72H376.573L377.73 1018.65ZM382.145 1015.44V1016.72H383.131V1017.42H382.145V1020.69C382.145 1020.9 382.188 1021.06 382.276 1021.17C382.364 1021.27 382.514 1021.33 382.726 1021.33C382.83 1021.33 382.973 1021.31 383.155 1021.27V1022C382.918 1022.07 382.687 1022.1 382.462 1022.1C382.058 1022.1 381.754 1021.98 381.549 1021.73C381.344 1021.49 381.241 1021.14 381.241 1020.69V1017.42H380.279V1016.72H381.241V1015.44H382.145Z" fill="#A3A3A3"/>
<path d="M722.23 1015.66H719.945V1022H719.013V1015.66H716.732V1014.89H722.23V1015.66ZM724.848 1022.1C724.132 1022.1 723.549 1021.86 723.1 1021.39C722.65 1020.92 722.426 1020.29 722.426 1019.5V1019.34C722.426 1018.81 722.525 1018.35 722.724 1017.94C722.925 1017.52 723.205 1017.2 723.563 1016.97C723.925 1016.74 724.315 1016.62 724.735 1016.62C725.422 1016.62 725.956 1016.85 726.337 1017.3C726.718 1017.75 726.908 1018.4 726.908 1019.24V1019.62H723.329C723.342 1020.14 723.493 1020.56 723.783 1020.88C724.076 1021.2 724.447 1021.36 724.896 1021.36C725.215 1021.36 725.486 1021.3 725.707 1021.17C725.928 1021.03 726.122 1020.86 726.288 1020.65L726.84 1021.08C726.397 1021.76 725.733 1022.1 724.848 1022.1ZM724.735 1017.36C724.371 1017.36 724.065 1017.49 723.817 1017.76C723.57 1018.03 723.417 1018.4 723.358 1018.88H726.005V1018.81C725.979 1018.35 725.855 1017.99 725.634 1017.74C725.412 1017.49 725.113 1017.36 724.735 1017.36ZM729.73 1018.65L730.902 1016.72H731.957L730.229 1019.33L732.011 1022H730.966L729.745 1020.02L728.524 1022H727.475L729.257 1019.33L727.528 1016.72H728.573L729.73 1018.65ZM734.145 1015.44V1016.72H735.131V1017.42H734.145V1020.69C734.145 1020.9 734.188 1021.06 734.276 1021.17C734.364 1021.27 734.514 1021.33 734.726 1021.33C734.83 1021.33 734.973 1021.31 735.155 1021.27V1022C734.918 1022.07 734.687 1022.1 734.462 1022.1C734.058 1022.1 733.754 1021.98 733.549 1021.73C733.344 1021.49 733.241 1021.14 733.241 1020.69V1017.42H732.279V1016.72H733.241V1015.44H734.145Z" fill="#A3A3A3"/>
<path d="M1074.23 1015.66H1071.95V1022H1071.01V1015.66H1068.73V1014.89H1074.23V1015.66ZM1076.85 1022.1C1076.13 1022.1 1075.55 1021.86 1075.1 1021.39C1074.65 1020.92 1074.43 1020.29 1074.43 1019.5V1019.34C1074.43 1018.81 1074.53 1018.35 1074.72 1017.94C1074.93 1017.52 1075.21 1017.2 1075.56 1016.97C1075.92 1016.74 1076.32 1016.62 1076.74 1016.62C1077.42 1016.62 1077.96 1016.85 1078.34 1017.3C1078.72 1017.75 1078.91 1018.4 1078.91 1019.24V1019.62H1075.33C1075.34 1020.14 1075.49 1020.56 1075.78 1020.88C1076.08 1021.2 1076.45 1021.36 1076.9 1021.36C1077.22 1021.36 1077.49 1021.3 1077.71 1021.17C1077.93 1021.03 1078.12 1020.86 1078.29 1020.65L1078.84 1021.08C1078.4 1021.76 1077.73 1022.1 1076.85 1022.1ZM1076.74 1017.36C1076.37 1017.36 1076.06 1017.49 1075.82 1017.76C1075.57 1018.03 1075.42 1018.4 1075.36 1018.88H1078V1018.81C1077.98 1018.35 1077.86 1017.99 1077.63 1017.74C1077.41 1017.49 1077.11 1017.36 1076.74 1017.36ZM1081.73 1018.65L1082.9 1016.72H1083.96L1082.23 1019.33L1084.01 1022H1082.97L1081.75 1020.02L1080.52 1022H1079.47L1081.26 1019.33L1079.53 1016.72H1080.57L1081.73 1018.65ZM1086.14 1015.44V1016.72H1087.13V1017.42H1086.14V1020.69C1086.14 1020.9 1086.19 1021.06 1086.28 1021.17C1086.36 1021.27 1086.51 1021.33 1086.73 1021.33C1086.83 1021.33 1086.97 1021.31 1087.16 1021.27V1022C1086.92 1022.07 1086.69 1022.1 1086.46 1022.1C1086.06 1022.1 1085.75 1021.98 1085.55 1021.73C1085.34 1021.49 1085.24 1021.14 1085.24 1020.69V1017.42H1084.28V1016.72H1085.24V1015.44H1086.14Z" fill="#A3A3A3"/>
<path d="M1426.23 1015.66H1423.95V1022H1423.01V1015.66H1420.73V1014.89H1426.23V1015.66ZM1428.85 1022.1C1428.13 1022.1 1427.55 1021.86 1427.1 1021.39C1426.65 1020.92 1426.43 1020.29 1426.43 1019.5V1019.34C1426.43 1018.81 1426.53 1018.35 1426.72 1017.94C1426.93 1017.52 1427.21 1017.2 1427.56 1016.97C1427.92 1016.74 1428.32 1016.62 1428.74 1016.62C1429.42 1016.62 1429.96 1016.85 1430.34 1017.3C1430.72 1017.75 1430.91 1018.4 1430.91 1019.24V1019.62H1427.33C1427.34 1020.14 1427.49 1020.56 1427.78 1020.88C1428.08 1021.2 1428.45 1021.36 1428.9 1021.36C1429.22 1021.36 1429.49 1021.3 1429.71 1021.17C1429.93 1021.03 1430.12 1020.86 1430.29 1020.65L1430.84 1021.08C1430.4 1021.76 1429.73 1022.1 1428.85 1022.1ZM1428.74 1017.36C1428.37 1017.36 1428.06 1017.49 1427.82 1017.76C1427.57 1018.03 1427.42 1018.4 1427.36 1018.88H1430V1018.81C1429.98 1018.35 1429.86 1017.99 1429.63 1017.74C1429.41 1017.49 1429.11 1017.36 1428.74 1017.36ZM1433.73 1018.65L1434.9 1016.72H1435.96L1434.23 1019.33L1436.01 1022H1434.97L1433.75 1020.02L1432.52 1022H1431.47L1433.26 1019.33L1431.53 1016.72H1432.57L1433.73 1018.65ZM1438.14 1015.44V1016.72H1439.13V1017.42H1438.14V1020.69C1438.14 1020.9 1438.19 1021.06 1438.28 1021.17C1438.36 1021.27 1438.51 1021.33 1438.73 1021.33C1438.83 1021.33 1438.97 1021.31 1439.16 1021.27V1022C1438.92 1022.07 1438.69 1022.1 1438.46 1022.1C1438.06 1022.1 1437.75 1021.98 1437.55 1021.73C1437.34 1021.49 1437.24 1021.14 1437.24 1020.69V1017.42H1436.28V1016.72H1437.24V1015.44H1438.14Z" fill="#A3A3A3"/>
<path d="M4.82227 4.875C4.63346 5.09961 4.40723 5.28027 4.14355 5.41699C3.88314 5.55371 3.59668 5.62207 3.28418 5.62207C2.87402 5.62207 2.51595 5.52116 2.20996 5.31934C1.90723 5.11751 1.67285 4.83431 1.50684 4.46973C1.34082 4.10189 1.25781 3.69661 1.25781 3.25391C1.25781 2.77865 1.34733 2.35059 1.52637 1.96973C1.70866 1.58887 1.96582 1.29753 2.29785 1.0957C2.62988 0.89388 3.01725 0.792969 3.45996 0.792969C4.16309 0.792969 4.71647 1.05664 5.12012 1.58398C5.52702 2.10807 5.73047 2.82422 5.73047 3.73242V3.99609C5.73047 5.37956 5.45703 6.3903 4.91016 7.02832C4.36328 7.66309 3.53809 7.98861 2.43457 8.00488H2.25879V7.24316H2.44922C3.19466 7.23014 3.76758 7.03646 4.16797 6.66211C4.56836 6.28451 4.78646 5.6888 4.82227 4.875ZM3.43066 4.875C3.7334 4.875 4.01172 4.78223 4.26562 4.59668C4.52279 4.41113 4.70996 4.18164 4.82715 3.9082V3.54688C4.82715 2.95443 4.69857 2.47266 4.44141 2.10156C4.18424 1.73047 3.85872 1.54492 3.46484 1.54492C3.06771 1.54492 2.7487 1.69792 2.50781 2.00391C2.26693 2.30664 2.14648 2.70703 2.14648 3.20508C2.14648 3.6901 2.26204 4.09049 2.49316 4.40625C2.72754 4.71875 3.04004 4.875 3.43066 4.875ZM11.4336 4.96777C11.4336 6.02572 11.2529 6.81185 10.8916 7.32617C10.5303 7.84049 9.96549 8.09766 9.19727 8.09766C8.4388 8.09766 7.87728 7.84701 7.5127 7.3457C7.14811 6.84115 6.95931 6.08919 6.94629 5.08984V3.88379C6.94629 2.83887 7.12695 2.0625 7.48828 1.55469C7.84961 1.04688 8.41602 0.792969 9.1875 0.792969C9.95247 0.792969 10.5156 1.03874 10.877 1.53027C11.2383 2.01855 11.4238 2.77376 11.4336 3.7959V4.96777ZM10.5303 3.73242C10.5303 2.96745 10.4229 2.41081 10.208 2.0625C9.99316 1.71094 9.65299 1.53516 9.1875 1.53516C8.72526 1.53516 8.38835 1.70931 8.17676 2.05762C7.96517 2.40592 7.85612 2.94141 7.84961 3.66406V5.10938C7.84961 5.8776 7.96029 6.44564 8.18164 6.81348C8.40625 7.17806 8.74479 7.36035 9.19727 7.36035C9.64323 7.36035 9.97363 7.18783 10.1885 6.84277C10.4066 6.49772 10.5205 5.9541 10.5303 5.21191V3.73242Z" fill="#A3A3A3"/>
<path d="M5.67188 64.7461C5.67188 65.1009 5.57747 65.4167 5.38867 65.6934C5.20312 65.9701 4.95085 66.1865 4.63184 66.3428C5.00293 66.5023 5.2959 66.735 5.51074 67.041C5.72884 67.347 5.83789 67.6937 5.83789 68.0811C5.83789 68.6963 5.62956 69.1862 5.21289 69.5508C4.79948 69.9154 4.25423 70.0977 3.57715 70.0977C2.89355 70.0977 2.34505 69.9154 1.93164 69.5508C1.52148 69.1829 1.31641 68.693 1.31641 68.0811C1.31641 67.6969 1.42057 67.3503 1.62891 67.041C1.84049 66.7318 2.13184 66.4974 2.50293 66.3379C2.18717 66.1816 1.93815 65.9652 1.75586 65.6885C1.57357 65.4118 1.48242 65.0977 1.48242 64.7461C1.48242 64.1471 1.67448 63.6719 2.05859 63.3203C2.44271 62.9688 2.94889 62.793 3.57715 62.793C4.20215 62.793 4.70671 62.9688 5.09082 63.3203C5.47819 63.6719 5.67188 64.1471 5.67188 64.7461ZM4.93457 68.0615C4.93457 67.6644 4.80762 67.3405 4.55371 67.0898C4.30306 66.8392 3.97428 66.7139 3.56738 66.7139C3.16048 66.7139 2.83333 66.8376 2.58594 67.085C2.3418 67.3324 2.21973 67.6579 2.21973 68.0615C2.21973 68.4652 2.33854 68.7826 2.57617 69.0137C2.81706 69.2448 3.15072 69.3604 3.57715 69.3604C4.00033 69.3604 4.33236 69.2448 4.57324 69.0137C4.81413 68.7793 4.93457 68.4619 4.93457 68.0615ZM3.57715 63.5352C3.22233 63.5352 2.93424 63.6458 2.71289 63.8672C2.49479 64.0853 2.38574 64.3831 2.38574 64.7607C2.38574 65.1221 2.49316 65.415 2.70801 65.6396C2.92611 65.861 3.21582 65.9717 3.57715 65.9717C3.93848 65.9717 4.22656 65.861 4.44141 65.6396C4.65951 65.415 4.76855 65.1221 4.76855 64.7607C4.76855 64.3994 4.65625 64.1048 4.43164 63.877C4.20703 63.6491 3.9222 63.5352 3.57715 63.5352ZM7.39062 66.4355L7.75195 62.8906H11.3945V63.7256H8.51855L8.30371 65.6641C8.65202 65.459 9.04753 65.3564 9.49023 65.3564C10.138 65.3564 10.6523 65.5713 11.0332 66.001C11.4141 66.4274 11.6045 67.0052 11.6045 67.7344C11.6045 68.4668 11.4059 69.0446 11.0088 69.4678C10.6149 69.8877 10.0632 70.0977 9.35352 70.0977C8.72526 70.0977 8.21257 69.9235 7.81543 69.5752C7.41829 69.2269 7.19206 68.7451 7.13672 68.1299H7.99121C8.04655 68.5368 8.19141 68.8444 8.42578 69.0527C8.66016 69.2578 8.9694 69.3604 9.35352 69.3604C9.77344 69.3604 10.1022 69.2171 10.3398 68.9307C10.5807 68.6442 10.7012 68.2487 10.7012 67.7441C10.7012 67.2689 10.571 66.888 10.3105 66.6016C10.0534 66.3118 9.70996 66.167 9.28027 66.167C8.88639 66.167 8.57715 66.2533 8.35254 66.4258L8.11328 66.6211L7.39062 66.4355Z" fill="#A3A3A3"/>
<path d="M5.67188 126.746C5.67188 127.101 5.57747 127.417 5.38867 127.693C5.20312 127.97 4.95085 128.187 4.63184 128.343C5.00293 128.502 5.2959 128.735 5.51074 129.041C5.72884 129.347 5.83789 129.694 5.83789 130.081C5.83789 130.696 5.62956 131.186 5.21289 131.551C4.79948 131.915 4.25423 132.098 3.57715 132.098C2.89355 132.098 2.34505 131.915 1.93164 131.551C1.52148 131.183 1.31641 130.693 1.31641 130.081C1.31641 129.697 1.42057 129.35 1.62891 129.041C1.84049 128.732 2.13184 128.497 2.50293 128.338C2.18717 128.182 1.93815 127.965 1.75586 127.688C1.57357 127.412 1.48242 127.098 1.48242 126.746C1.48242 126.147 1.67448 125.672 2.05859 125.32C2.44271 124.969 2.94889 124.793 3.57715 124.793C4.20215 124.793 4.70671 124.969 5.09082 125.32C5.47819 125.672 5.67188 126.147 5.67188 126.746ZM4.93457 130.062C4.93457 129.664 4.80762 129.34 4.55371 129.09C4.30306 128.839 3.97428 128.714 3.56738 128.714C3.16048 128.714 2.83333 128.838 2.58594 129.085C2.3418 129.332 2.21973 129.658 2.21973 130.062C2.21973 130.465 2.33854 130.783 2.57617 131.014C2.81706 131.245 3.15072 131.36 3.57715 131.36C4.00033 131.36 4.33236 131.245 4.57324 131.014C4.81413 130.779 4.93457 130.462 4.93457 130.062ZM3.57715 125.535C3.22233 125.535 2.93424 125.646 2.71289 125.867C2.49479 126.085 2.38574 126.383 2.38574 126.761C2.38574 127.122 2.49316 127.415 2.70801 127.64C2.92611 127.861 3.21582 127.972 3.57715 127.972C3.93848 127.972 4.22656 127.861 4.44141 127.64C4.65951 127.415 4.76855 127.122 4.76855 126.761C4.76855 126.399 4.65625 126.105 4.43164 125.877C4.20703 125.649 3.9222 125.535 3.57715 125.535ZM11.4336 128.968C11.4336 130.026 11.2529 130.812 10.8916 131.326C10.5303 131.84 9.96549 132.098 9.19727 132.098C8.4388 132.098 7.87728 131.847 7.5127 131.346C7.14811 130.841 6.95931 130.089 6.94629 129.09V127.884C6.94629 126.839 7.12695 126.062 7.48828 125.555C7.84961 125.047 8.41602 124.793 9.1875 124.793C9.95247 124.793 10.5156 125.039 10.877 125.53C11.2383 126.019 11.4238 126.774 11.4336 127.796V128.968ZM10.5303 127.732C10.5303 126.967 10.4229 126.411 10.208 126.062C9.99316 125.711 9.65299 125.535 9.1875 125.535C8.72526 125.535 8.38835 125.709 8.17676 126.058C7.96517 126.406 7.85612 126.941 7.84961 127.664V129.109C7.84961 129.878 7.96029 130.446 8.18164 130.813C8.40625 131.178 8.74479 131.36 9.19727 131.36C9.64323 131.36 9.97363 131.188 10.1885 130.843C10.4066 130.498 10.5205 129.954 10.5303 129.212V127.732Z" fill="#A3A3A3"/>
<path d="M5.9502 188.398L3.00586 195H2.05859L4.99316 188.633H1.14551V187.891H5.9502V188.398ZM7.39062 191.436L7.75195 187.891H11.3945V188.726H8.51855L8.30371 190.664C8.65202 190.459 9.04753 190.356 9.49023 190.356C10.138 190.356 10.6523 190.571 11.0332 191.001C11.4141 191.427 11.6045 192.005 11.6045 192.734C11.6045 193.467 11.4059 194.045 11.0088 194.468C10.6149 194.888 10.0632 195.098 9.35352 195.098C8.72526 195.098 8.21257 194.924 7.81543 194.575C7.41829 194.227 7.19206 193.745 7.13672 193.13H7.99121C8.04655 193.537 8.19141 193.844 8.42578 194.053C8.66016 194.258 8.9694 194.36 9.35352 194.36C9.77344 194.36 10.1022 194.217 10.3398 193.931C10.5807 193.644 10.7012 193.249 10.7012 192.744C10.7012 192.269 10.571 191.888 10.3105 191.602C10.0534 191.312 9.70996 191.167 9.28027 191.167C8.88639 191.167 8.57715 191.253 8.35254 191.426L8.11328 191.621L7.39062 191.436Z" fill="#A3A3A3"/>
<path d="M5.9502 250.398L3.00586 257H2.05859L4.99316 250.633H1.14551V249.891H5.9502V250.398ZM11.4336 253.968C11.4336 255.026 11.2529 255.812 10.8916 256.326C10.5303 256.84 9.96549 257.098 9.19727 257.098C8.4388 257.098 7.87728 256.847 7.5127 256.346C7.14811 255.841 6.95931 255.089 6.94629 254.09V252.884C6.94629 251.839 7.12695 251.062 7.48828 250.555C7.84961 250.047 8.41602 249.793 9.1875 249.793C9.95247 249.793 10.5156 250.039 10.877 250.53C11.2383 251.019 11.4238 251.774 11.4336 252.796V253.968ZM10.5303 252.732C10.5303 251.967 10.4229 251.411 10.208 251.062C9.99316 250.711 9.65299 250.535 9.1875 250.535C8.72526 250.535 8.38835 250.709 8.17676 251.058C7.96517 251.406 7.85612 251.941 7.84961 252.664V254.109C7.84961 254.878 7.96029 255.446 8.18164 255.813C8.40625 256.178 8.74479 256.36 9.19727 256.36C9.64323 256.36 9.97363 256.188 10.1885 255.843C10.4066 255.498 10.5205 254.954 10.5303 254.212V252.732Z" fill="#A3A3A3"/>
<path d="M4.90527 312.886V313.652H4.73926C4.03613 313.665 3.47624 313.874 3.05957 314.277C2.6429 314.681 2.40202 315.249 2.33691 315.981C2.71126 315.552 3.22233 315.337 3.87012 315.337C4.48861 315.337 4.98177 315.555 5.34961 315.991C5.7207 316.427 5.90625 316.991 5.90625 317.681C5.90625 318.413 5.70605 318.999 5.30566 319.438C4.90853 319.878 4.37467 320.098 3.7041 320.098C3.02376 320.098 2.47201 319.837 2.04883 319.316C1.62565 318.792 1.41406 318.118 1.41406 317.295V316.948C1.41406 315.64 1.69238 314.64 2.24902 313.95C2.80892 313.257 3.64062 312.902 4.74414 312.886H4.90527ZM3.71875 316.089C3.40951 316.089 3.12467 316.182 2.86426 316.367C2.60384 316.553 2.42318 316.785 2.32227 317.065V317.397C2.32227 317.983 2.4541 318.455 2.71777 318.813C2.98145 319.172 3.31022 319.351 3.7041 319.351C4.111 319.351 4.43001 319.201 4.66113 318.901C4.89551 318.602 5.0127 318.21 5.0127 317.725C5.0127 317.236 4.89388 316.842 4.65625 316.543C4.42188 316.24 4.10938 316.089 3.71875 316.089ZM7.39062 316.436L7.75195 312.891H11.3945V313.726H8.51855L8.30371 315.664C8.65202 315.459 9.04753 315.356 9.49023 315.356C10.138 315.356 10.6523 315.571 11.0332 316.001C11.4141 316.427 11.6045 317.005 11.6045 317.734C11.6045 318.467 11.4059 319.045 11.0088 319.468C10.6149 319.888 10.0632 320.098 9.35352 320.098C8.72526 320.098 8.21257 319.924 7.81543 319.575C7.41829 319.227 7.19206 318.745 7.13672 318.13H7.99121C8.04655 318.537 8.19141 318.844 8.42578 319.053C8.66016 319.258 8.9694 319.36 9.35352 319.36C9.77344 319.36 10.1022 319.217 10.3398 318.931C10.5807 318.644 10.7012 318.249 10.7012 317.744C10.7012 317.269 10.571 316.888 10.3105 316.602C10.0534 316.312 9.70996 316.167 9.28027 316.167C8.88639 316.167 8.57715 316.253 8.35254 316.426L8.11328 316.621L7.39062 316.436Z" fill="#A3A3A3"/>
<path d="M4.90527 374.886V375.652H4.73926C4.03613 375.665 3.47624 375.874 3.05957 376.277C2.6429 376.681 2.40202 377.249 2.33691 377.981C2.71126 377.552 3.22233 377.337 3.87012 377.337C4.48861 377.337 4.98177 377.555 5.34961 377.991C5.7207 378.427 5.90625 378.991 5.90625 379.681C5.90625 380.413 5.70605 380.999 5.30566 381.438C4.90853 381.878 4.37467 382.098 3.7041 382.098C3.02376 382.098 2.47201 381.837 2.04883 381.316C1.62565 380.792 1.41406 380.118 1.41406 379.295V378.948C1.41406 377.64 1.69238 376.64 2.24902 375.95C2.80892 375.257 3.64062 374.902 4.74414 374.886H4.90527ZM3.71875 378.089C3.40951 378.089 3.12467 378.182 2.86426 378.367C2.60384 378.553 2.42318 378.785 2.32227 379.065V379.397C2.32227 379.983 2.4541 380.455 2.71777 380.813C2.98145 381.172 3.31022 381.351 3.7041 381.351C4.111 381.351 4.43001 381.201 4.66113 380.901C4.89551 380.602 5.0127 380.21 5.0127 379.725C5.0127 379.236 4.89388 378.842 4.65625 378.543C4.42188 378.24 4.10938 378.089 3.71875 378.089ZM11.4336 378.968C11.4336 380.026 11.2529 380.812 10.8916 381.326C10.5303 381.84 9.96549 382.098 9.19727 382.098C8.4388 382.098 7.87728 381.847 7.5127 381.346C7.14811 380.841 6.95931 380.089 6.94629 379.09V377.884C6.94629 376.839 7.12695 376.062 7.48828 375.555C7.84961 375.047 8.41602 374.793 9.1875 374.793C9.95247 374.793 10.5156 375.039 10.877 375.53C11.2383 376.019 11.4238 376.774 11.4336 377.796V378.968ZM10.5303 377.732C10.5303 376.967 10.4229 376.411 10.208 376.062C9.99316 375.711 9.65299 375.535 9.1875 375.535C8.72526 375.535 8.38835 375.709 8.17676 376.058C7.96517 376.406 7.85612 376.941 7.84961 377.664V379.109C7.84961 379.878 7.96029 380.446 8.18164 380.813C8.40625 381.178 8.74479 381.36 9.19727 381.36C9.64323 381.36 9.97363 381.188 10.1885 380.843C10.4066 380.498 10.5205 379.954 10.5303 379.212V377.732Z" fill="#A3A3A3"/>
<path d="M1.77539 441.436L2.13672 437.891H5.7793V438.726H2.90332L2.68848 440.664C3.03678 440.459 3.43229 440.356 3.875 440.356C4.52279 440.356 5.03711 440.571 5.41797 441.001C5.79883 441.427 5.98926 442.005 5.98926 442.734C5.98926 443.467 5.79069 444.045 5.39355 444.468C4.99967 444.888 4.44792 445.098 3.73828 445.098C3.11003 445.098 2.59733 444.924 2.2002 444.575C1.80306 444.227 1.57682 443.745 1.52148 443.13H2.37598C2.43132 443.537 2.57617 443.844 2.81055 444.053C3.04492 444.258 3.35417 444.36 3.73828 444.36C4.1582 444.36 4.48698 444.217 4.72461 443.931C4.96549 443.644 5.08594 443.249 5.08594 442.744C5.08594 442.269 4.95573 441.888 4.69531 441.602C4.43815 441.312 4.09473 441.167 3.66504 441.167C3.27116 441.167 2.96191 441.253 2.7373 441.426L2.49805 441.621L1.77539 441.436ZM7.39062 441.436L7.75195 437.891H11.3945V438.726H8.51855L8.30371 440.664C8.65202 440.459 9.04753 440.356 9.49023 440.356C10.138 440.356 10.6523 440.571 11.0332 441.001C11.4141 441.427 11.6045 442.005 11.6045 442.734C11.6045 443.467 11.4059 444.045 11.0088 444.468C10.6149 444.888 10.0632 445.098 9.35352 445.098C8.72526 445.098 8.21257 444.924 7.81543 444.575C7.41829 444.227 7.19206 443.745 7.13672 443.13H7.99121C8.04655 443.537 8.19141 443.844 8.42578 444.053C8.66016 444.258 8.9694 444.36 9.35352 444.36C9.77344 444.36 10.1022 444.217 10.3398 443.931C10.5807 443.644 10.7012 443.249 10.7012 442.744C10.7012 442.269 10.571 441.888 10.3105 441.602C10.0534 441.312 9.70996 441.167 9.28027 441.167C8.88639 441.167 8.57715 441.253 8.35254 441.426L8.11328 441.621L7.39062 441.436Z" fill="#A3A3A3"/>
<path d="M1.77539 503.436L2.13672 499.891H5.7793V500.726H2.90332L2.68848 502.664C3.03678 502.459 3.43229 502.356 3.875 502.356C4.52279 502.356 5.03711 502.571 5.41797 503.001C5.79883 503.427 5.98926 504.005 5.98926 504.734C5.98926 505.467 5.79069 506.045 5.39355 506.468C4.99967 506.888 4.44792 507.098 3.73828 507.098C3.11003 507.098 2.59733 506.924 2.2002 506.575C1.80306 506.227 1.57682 505.745 1.52148 505.13H2.37598C2.43132 505.537 2.57617 505.844 2.81055 506.053C3.04492 506.258 3.35417 506.36 3.73828 506.36C4.1582 506.36 4.48698 506.217 4.72461 505.931C4.96549 505.644 5.08594 505.249 5.08594 504.744C5.08594 504.269 4.95573 503.888 4.69531 503.602C4.43815 503.312 4.09473 503.167 3.66504 503.167C3.27116 503.167 2.96191 503.253 2.7373 503.426L2.49805 503.621L1.77539 503.436ZM11.4336 503.968C11.4336 505.026 11.2529 505.812 10.8916 506.326C10.5303 506.84 9.96549 507.098 9.19727 507.098C8.4388 507.098 7.87728 506.847 7.5127 506.346C7.14811 505.841 6.95931 505.089 6.94629 504.09V502.884C6.94629 501.839 7.12695 501.062 7.48828 500.555C7.84961 500.047 8.41602 499.793 9.1875 499.793C9.95247 499.793 10.5156 500.039 10.877 500.53C11.2383 501.019 11.4238 501.774 11.4336 502.796V503.968ZM10.5303 502.732C10.5303 501.967 10.4229 501.411 10.208 501.062C9.99316 500.711 9.65299 500.535 9.1875 500.535C8.72526 500.535 8.38835 500.709 8.17676 501.058C7.96517 501.406 7.85612 501.941 7.84961 502.664V504.109C7.84961 504.878 7.96029 505.446 8.18164 505.813C8.40625 506.178 8.74479 506.36 9.19727 506.36C9.64323 506.36 9.97363 506.188 10.1885 505.843C10.4066 505.498 10.5205 504.954 10.5303 504.212V502.732Z" fill="#A3A3A3"/>
<path d="M5.17383 566.612H6.16016V567.35H5.17383V569H4.26562V567.35H1.02832V566.817L4.21191 561.891H5.17383V566.612ZM2.05371 566.612H4.26562V563.126L4.1582 563.321L2.05371 566.612ZM7.39062 565.436L7.75195 561.891H11.3945V562.726H8.51855L8.30371 564.664C8.65202 564.459 9.04753 564.356 9.49023 564.356C10.138 564.356 10.6523 564.571 11.0332 565.001C11.4141 565.427 11.6045 566.005 11.6045 566.734C11.6045 567.467 11.4059 568.045 11.0088 568.468C10.6149 568.888 10.0632 569.098 9.35352 569.098C8.72526 569.098 8.21257 568.924 7.81543 568.575C7.41829 568.227 7.19206 567.745 7.13672 567.13H7.99121C8.04655 567.537 8.19141 567.844 8.42578 568.053C8.66016 568.258 8.9694 568.36 9.35352 568.36C9.77344 568.36 10.1022 568.217 10.3398 567.931C10.5807 567.644 10.7012 567.249 10.7012 566.744C10.7012 566.269 10.571 565.888 10.3105 565.602C10.0534 565.312 9.70996 565.167 9.28027 565.167C8.88639 565.167 8.57715 565.253 8.35254 565.426L8.11328 565.621L7.39062 565.436Z" fill="#A3A3A3"/>
<path d="M5.17383 629.612H6.16016V630.35H5.17383V632H4.26562V630.35H1.02832V629.817L4.21191 624.891H5.17383V629.612ZM2.05371 629.612H4.26562V626.126L4.1582 626.321L2.05371 629.612ZM11.4336 628.968C11.4336 630.026 11.2529 630.812 10.8916 631.326C10.5303 631.84 9.96549 632.098 9.19727 632.098C8.4388 632.098 7.87728 631.847 7.5127 631.346C7.14811 630.841 6.95931 630.089 6.94629 629.09V627.884C6.94629 626.839 7.12695 626.062 7.48828 625.555C7.84961 625.047 8.41602 624.793 9.1875 624.793C9.95247 624.793 10.5156 625.039 10.877 625.53C11.2383 626.019 11.4238 626.774 11.4336 627.796V628.968ZM10.5303 627.732C10.5303 626.967 10.4229 626.411 10.208 626.062C9.99316 625.711 9.65299 625.535 9.1875 625.535C8.72526 625.535 8.38835 625.709 8.17676 626.058C7.96517 626.406 7.85612 626.941 7.84961 627.664V629.109C7.84961 629.878 7.96029 630.446 8.18164 630.813C8.40625 631.178 8.74479 631.36 9.19727 631.36C9.64323 631.36 9.97363 631.188 10.1885 630.843C10.4066 630.498 10.5205 629.954 10.5303 629.212V627.732Z" fill="#A3A3A3"/>
<path d="M2.67383 690.006H3.35254C3.77897 689.999 4.11426 689.887 4.3584 689.669C4.60254 689.451 4.72461 689.156 4.72461 688.785C4.72461 687.952 4.30957 687.535 3.47949 687.535C3.08887 687.535 2.77637 687.647 2.54199 687.872C2.31087 688.093 2.19531 688.388 2.19531 688.756H1.29199C1.29199 688.193 1.49707 687.726 1.90723 687.354C2.32064 686.98 2.84473 686.793 3.47949 686.793C4.15007 686.793 4.67578 686.97 5.05664 687.325C5.4375 687.68 5.62793 688.173 5.62793 688.805C5.62793 689.114 5.52702 689.413 5.3252 689.703C5.12663 689.993 4.85482 690.209 4.50977 690.353C4.90039 690.476 5.2015 690.681 5.41309 690.968C5.62793 691.254 5.73535 691.604 5.73535 692.018C5.73535 692.656 5.52702 693.162 5.11035 693.536C4.69368 693.91 4.15169 694.098 3.48438 694.098C2.81706 694.098 2.27344 693.917 1.85352 693.556C1.43685 693.194 1.22852 692.717 1.22852 692.125H2.13672C2.13672 692.499 2.25879 692.799 2.50293 693.023C2.74707 693.248 3.07422 693.36 3.48438 693.36C3.92057 693.36 4.25423 693.246 4.48535 693.019C4.71647 692.791 4.83203 692.464 4.83203 692.037C4.83203 691.624 4.70508 691.306 4.45117 691.085C4.19727 690.864 3.83105 690.75 3.35254 690.743H2.67383V690.006ZM7.39062 690.436L7.75195 686.891H11.3945V687.726H8.51855L8.30371 689.664C8.65202 689.459 9.04753 689.356 9.49023 689.356C10.138 689.356 10.6523 689.571 11.0332 690.001C11.4141 690.427 11.6045 691.005 11.6045 691.734C11.6045 692.467 11.4059 693.045 11.0088 693.468C10.6149 693.888 10.0632 694.098 9.35352 694.098C8.72526 694.098 8.21257 693.924 7.81543 693.575C7.41829 693.227 7.19206 692.745 7.13672 692.13H7.99121C8.04655 692.537 8.19141 692.844 8.42578 693.053C8.66016 693.258 8.9694 693.36 9.35352 693.36C9.77344 693.36 10.1022 693.217 10.3398 692.931C10.5807 692.644 10.7012 692.249 10.7012 691.744C10.7012 691.269 10.571 690.888 10.3105 690.602C10.0534 690.312 9.70996 690.167 9.28027 690.167C8.88639 690.167 8.57715 690.253 8.35254 690.426L8.11328 690.621L7.39062 690.436Z" fill="#A3A3A3"/>
<path d="M2.67383 753.006H3.35254C3.77897 752.999 4.11426 752.887 4.3584 752.669C4.60254 752.451 4.72461 752.156 4.72461 751.785C4.72461 750.952 4.30957 750.535 3.47949 750.535C3.08887 750.535 2.77637 750.647 2.54199 750.872C2.31087 751.093 2.19531 751.388 2.19531 751.756H1.29199C1.29199 751.193 1.49707 750.726 1.90723 750.354C2.32064 749.98 2.84473 749.793 3.47949 749.793C4.15007 749.793 4.67578 749.97 5.05664 750.325C5.4375 750.68 5.62793 751.173 5.62793 751.805C5.62793 752.114 5.52702 752.413 5.3252 752.703C5.12663 752.993 4.85482 753.209 4.50977 753.353C4.90039 753.476 5.2015 753.681 5.41309 753.968C5.62793 754.254 5.73535 754.604 5.73535 755.018C5.73535 755.656 5.52702 756.162 5.11035 756.536C4.69368 756.91 4.15169 757.098 3.48438 757.098C2.81706 757.098 2.27344 756.917 1.85352 756.556C1.43685 756.194 1.22852 755.717 1.22852 755.125H2.13672C2.13672 755.499 2.25879 755.799 2.50293 756.023C2.74707 756.248 3.07422 756.36 3.48438 756.36C3.92057 756.36 4.25423 756.246 4.48535 756.019C4.71647 755.791 4.83203 755.464 4.83203 755.037C4.83203 754.624 4.70508 754.306 4.45117 754.085C4.19727 753.864 3.83105 753.75 3.35254 753.743H2.67383V753.006ZM11.4336 753.968C11.4336 755.026 11.2529 755.812 10.8916 756.326C10.5303 756.84 9.96549 757.098 9.19727 757.098C8.4388 757.098 7.87728 756.847 7.5127 756.346C7.14811 755.841 6.95931 755.089 6.94629 754.09V752.884C6.94629 751.839 7.12695 751.062 7.48828 750.555C7.84961 750.047 8.41602 749.793 9.1875 749.793C9.95247 749.793 10.5156 750.039 10.877 750.53C11.2383 751.019 11.4238 751.774 11.4336 752.796V753.968ZM10.5303 752.732C10.5303 751.967 10.4229 751.411 10.208 751.062C9.99316 750.711 9.65299 750.535 9.1875 750.535C8.72526 750.535 8.38835 750.709 8.17676 751.058C7.96517 751.406 7.85612 751.941 7.84961 752.664V754.109C7.84961 754.878 7.96029 755.446 8.18164 755.813C8.40625 756.178 8.74479 756.36 9.19727 756.36C9.64323 756.36 9.97363 756.188 10.1885 755.843C10.4066 755.498 10.5205 754.954 10.5303 754.212V752.732Z" fill="#A3A3A3"/>
<path d="M6.01855 819H1.36035V818.351L3.82129 815.616C4.18587 815.203 4.43652 814.868 4.57324 814.61C4.71322 814.35 4.7832 814.081 4.7832 813.805C4.7832 813.434 4.6709 813.129 4.44629 812.892C4.22168 812.654 3.9222 812.535 3.54785 812.535C3.09863 812.535 2.7487 812.664 2.49805 812.921C2.25065 813.175 2.12695 813.53 2.12695 813.985H1.22363C1.22363 813.331 1.43359 812.802 1.85352 812.398C2.27669 811.995 2.84147 811.793 3.54785 811.793C4.20866 811.793 4.73112 811.967 5.11523 812.315C5.49935 812.66 5.69141 813.121 5.69141 813.697C5.69141 814.397 5.24544 815.23 4.35352 816.197L2.44922 818.263H6.01855V819ZM7.39062 815.436L7.75195 811.891H11.3945V812.726H8.51855L8.30371 814.664C8.65202 814.459 9.04753 814.356 9.49023 814.356C10.138 814.356 10.6523 814.571 11.0332 815.001C11.4141 815.427 11.6045 816.005 11.6045 816.734C11.6045 817.467 11.4059 818.045 11.0088 818.468C10.6149 818.888 10.0632 819.098 9.35352 819.098C8.72526 819.098 8.21257 818.924 7.81543 818.575C7.41829 818.227 7.19206 817.745 7.13672 817.13H7.99121C8.04655 817.537 8.19141 817.844 8.42578 818.053C8.66016 818.258 8.9694 818.36 9.35352 818.36C9.77344 818.36 10.1022 818.217 10.3398 817.931C10.5807 817.644 10.7012 817.249 10.7012 816.744C10.7012 816.269 10.571 815.888 10.3105 815.602C10.0534 815.312 9.70996 815.167 9.28027 815.167C8.88639 815.167 8.57715 815.253 8.35254 815.426L8.11328 815.621L7.39062 815.436Z" fill="#A3A3A3"/>
<path d="M6.01855 882H1.36035V881.351L3.82129 878.616C4.18587 878.203 4.43652 877.868 4.57324 877.61C4.71322 877.35 4.7832 877.081 4.7832 876.805C4.7832 876.434 4.6709 876.129 4.44629 875.892C4.22168 875.654 3.9222 875.535 3.54785 875.535C3.09863 875.535 2.7487 875.664 2.49805 875.921C2.25065 876.175 2.12695 876.53 2.12695 876.985H1.22363C1.22363 876.331 1.43359 875.802 1.85352 875.398C2.27669 874.995 2.84147 874.793 3.54785 874.793C4.20866 874.793 4.73112 874.967 5.11523 875.315C5.49935 875.66 5.69141 876.121 5.69141 876.697C5.69141 877.397 5.24544 878.23 4.35352 879.197L2.44922 881.263H6.01855V882ZM11.4336 878.968C11.4336 880.026 11.2529 880.812 10.8916 881.326C10.5303 881.84 9.96549 882.098 9.19727 882.098C8.4388 882.098 7.87728 881.847 7.5127 881.346C7.14811 880.841 6.95931 880.089 6.94629 879.09V877.884C6.94629 876.839 7.12695 876.062 7.48828 875.555C7.84961 875.047 8.41602 874.793 9.1875 874.793C9.95247 874.793 10.5156 875.039 10.877 875.53C11.2383 876.019 11.4238 876.774 11.4336 877.796V878.968ZM10.5303 877.732C10.5303 876.967 10.4229 876.411 10.208 876.062C9.99316 875.711 9.65299 875.535 9.1875 875.535C8.72526 875.535 8.38835 875.709 8.17676 876.058C7.96517 876.406 7.85612 876.941 7.84961 877.664V879.109C7.84961 879.878 7.96029 880.446 8.18164 880.813C8.40625 881.178 8.74479 881.36 9.19727 881.36C9.64323 881.36 9.97363 881.188 10.1885 880.843C10.4066 880.498 10.5205 879.954 10.5303 879.212V877.732Z" fill="#A3A3A3"/>
<path d="M4.3291 944H3.4209V937.979L1.59961 938.648V937.828L4.1875 936.856H4.3291V944ZM7.39062 940.436L7.75195 936.891H11.3945V937.726H8.51855L8.30371 939.664C8.65202 939.459 9.04753 939.356 9.49023 939.356C10.138 939.356 10.6523 939.571 11.0332 940.001C11.4141 940.427 11.6045 941.005 11.6045 941.734C11.6045 942.467 11.4059 943.045 11.0088 943.468C10.6149 943.888 10.0632 944.098 9.35352 944.098C8.72526 944.098 8.21257 943.924 7.81543 943.575C7.41829 943.227 7.19206 942.745 7.13672 942.13H7.99121C8.04655 942.537 8.19141 942.844 8.42578 943.053C8.66016 943.258 8.9694 943.36 9.35352 943.36C9.77344 943.36 10.1022 943.217 10.3398 942.931C10.5807 942.644 10.7012 942.249 10.7012 941.744C10.7012 941.269 10.571 940.888 10.3105 940.602C10.0534 940.312 9.70996 940.167 9.28027 940.167C8.88639 940.167 8.57715 940.253 8.35254 940.426L8.11328 940.621L7.39062 940.436Z" fill="#A3A3A3"/>
<path d="M4.3291 1007H3.4209V1000.98L1.59961 1001.65V1000.83L4.1875 999.856H4.3291V1007ZM11.4336 1003.97C11.4336 1005.03 11.2529 1005.81 10.8916 1006.33C10.5303 1006.84 9.96549 1007.1 9.19727 1007.1C8.4388 1007.1 7.87728 1006.85 7.5127 1006.35C7.14811 1005.84 6.95931 1005.09 6.94629 1004.09V1002.88C6.94629 1001.84 7.12695 1001.06 7.48828 1000.55C7.84961 1000.05 8.41602 999.793 9.1875 999.793C9.95247 999.793 10.5156 1000.04 10.877 1000.53C11.2383 1001.02 11.4238 1001.77 11.4336 1002.8V1003.97ZM10.5303 1002.73C10.5303 1001.97 10.4229 1001.41 10.208 1001.06C9.99316 1000.71 9.65299 1000.54 9.1875 1000.54C8.72526 1000.54 8.38835 1000.71 8.17676 1001.06C7.96517 1001.41 7.85612 1001.94 7.84961 1002.66V1004.11C7.84961 1004.88 7.96029 1005.45 8.18164 1005.81C8.40625 1006.18 8.74479 1006.36 9.19727 1006.36C9.64323 1006.36 9.97363 1006.19 10.1885 1005.84C10.4066 1005.5 10.5205 1004.95 10.5303 1004.21V1002.73Z" fill="#A3A3A3"/>
<path d="M22 1004V5" stroke="#F0F0F0"/>
<path d="M374 1004V5" stroke="#F0F0F0"/>
<path d="M726 1004V5" stroke="#F0F0F0"/>
<path d="M1078 1004V5" stroke="#F0F0F0"/>
<path d="M1430 1004V5" stroke="#F0F0F0"/>
<path d="M22 5H1430" stroke="#F0F0F0"/>
<path d="M22 67H1430" stroke="#F0F0F0"/>
<path d="M22 129H1430" stroke="#F0F0F0"/>
<path d="M22 192H1430" stroke="#F0F0F0"/>
<path d="M22 254H1430" stroke="#F0F0F0"/>
<path d="M22 317H1430" stroke="#F0F0F0"/>
<path d="M22 379H1430" stroke="#F0F0F0"/>
<path d="M22 442H1430" stroke="#F0F0F0"/>
<path d="M22 504H1430" stroke="#F0F0F0"/>
<path d="M22 566H1430" stroke="#F0F0F0"/>
<path d="M22 629H1430" stroke="#F0F0F0"/>
<path d="M22 691H1430" stroke="#F0F0F0"/>
<path d="M22 754H1430" stroke="#F0F0F0"/>
<path d="M22 816H1430" stroke="#F0F0F0"/>
<path d="M22 879H1430" stroke="#F0F0F0"/>
<path d="M22 941H1430" stroke="#F0F0F0"/>
<path d="M22 1004H1430" stroke="#F0F0F0"/>
<path d="M22 117C22 117 198 954 374 954C550 954 550 367 726 367C902 367 902 217 1078 217C1254 217 1430 117 1430 117" stroke="#FF9393" stroke-width="2"/>
<path d="M18 117.388C18 118.449 18.4217 119.466 19.1719 120.216C19.922 120.966 20.9391 121.388 22 121.388C23.0609 121.388 24.078 120.966 24.8281 120.216C25.5783 119.466 26 118.449 26 117.388C26 116.327 25.5783 115.309 24.8281 114.559C24.078 113.808 23.0609 113.388 22 113.388C20.9391 113.388 19.922 113.808 19.1719 114.559C18.4217 115.309 18 116.327 18 117.388Z" fill="#A6CEE3"/>
<path d="M370 954.05C370 955.111 370.422 956.129 371.172 956.879C371.922 957.629 372.939 958.05 374 958.05C375.061 958.05 376.078 957.629 376.828 956.879C377.578 956.129 378 955.111 378 954.05C378 952.989 377.578 951.972 376.828 951.222C376.078 950.472 375.061 950.05 374 950.05C372.939 950.05 371.922 950.472 371.172 951.222C370.422 951.972 370 952.989 370 954.05Z" fill="#A6CEE3"/>
<path d="M722 367.138C722 368.199 722.422 369.216 723.172 369.966C723.922 370.716 724.939 371.138 726 371.138C727.061 371.138 728.078 370.716 728.828 369.966C729.578 369.216 730 368.199 730 367.138C730 366.077 729.578 365.059 728.828 364.309C728.078 363.558 727.061 363.138 726 363.138C724.939 363.138 723.922 363.558 723.172 364.309C722.422 365.059 722 366.077 722 367.138Z" fill="#A6CEE3"/>
<path d="M1074 217.287C1074 218.348 1074.42 219.366 1075.17 220.116C1075.92 220.866 1076.94 221.287 1078 221.287C1079.06 221.287 1080.08 220.866 1080.83 220.116C1081.58 219.366 1082 218.348 1082 217.287C1082 216.226 1081.58 215.209 1080.83 214.459C1080.08 213.709 1079.06 213.287 1078 213.287C1076.94 213.287 1075.92 213.709 1075.17 214.459C1074.42 215.209 1074 216.226 1074 217.287Z" fill="#A6CEE3"/>
<path d="M1426 117.388C1426 118.449 1426.42 119.466 1427.17 120.216C1427.92 120.966 1428.94 121.388 1430 121.388C1431.06 121.388 1432.08 120.966 1432.83 120.216C1433.58 119.466 1434 118.449 1434 117.388C1434 116.327 1433.58 115.309 1432.83 114.559C1432.08 113.808 1431.06 113.388 1430 113.388C1428.94 113.388 1427.92 113.808 1427.17 114.559C1426.42 115.309 1426 116.327 1426 117.388Z" fill="#A6CEE3"/>
</svg>
