<svg width="40" height="40" viewBox="0 0 40 40" fill="none" xmlns="http://www.w3.org/2000/svg">
<path d="M11.1334 3.24103L8.26479 0.307693C3.45035 4.06154 0.280843 9.84615 0 16.4103H4.01204C4.31294 10.9744 7.04112 6.21538 11.1334 3.24103ZM35.988 16.4103H40C39.6991 9.84615 36.5296 4.06154 31.7352 0.307693L28.8867 3.24103C32.9388 6.21538 35.6871 10.9744 35.988 16.4103ZM32.0361 17.4359C32.0361 11.1385 28.7462 5.86667 23.009 4.47179V3.07692C23.009 1.37436 21.665 0 20 0C18.335 0 16.991 1.37436 16.991 3.07692V4.47179C11.2337 5.86667 7.96389 11.1179 7.96389 17.4359V27.6923L3.95186 31.7949V33.8462H36.0481V31.7949L32.0361 27.6923V17.4359ZM20 40C20.2808 40 20.5416 39.9795 20.8024 39.9179C22.1063 39.6308 23.1695 38.7282 23.6911 37.4974C23.8917 37.0051 23.992 36.4718 23.992 35.8974H15.9679C15.988 38.1538 17.7733 40 20 40Z" fill="white"/>
</svg>
