<svg width="50" height="50" viewBox="0 0 50 50" fill="none" xmlns="http://www.w3.org/2000/svg">
<path d="M24.9795 4.16699C13.4795 4.16699 4.16699 13.5003 4.16699 25.0003C4.16699 36.5003 13.4795 45.8337 24.9795 45.8337C36.5003 45.8337 45.8337 36.5003 45.8337 25.0003C45.8337 13.5003 36.5003 4.16699 24.9795 4.16699ZM25.0003 41.667C15.792 41.667 8.33366 34.2087 8.33366 25.0003C8.33366 15.792 15.792 8.33366 25.0003 8.33366C34.2087 8.33366 41.667 15.792 41.667 25.0003C41.667 34.2087 34.2087 41.667 25.0003 41.667Z" fill="white"/>
<path d="M26.042 14.583H22.917V27.083L33.8545 33.6455L35.417 31.083L26.042 25.5205V14.583Z" fill="white"/>
</svg>
